<?xml version="1.0" encoding="UTF-8"?>
<svg width="18" height="18" viewBox="0 0 18 18" xmlns="http://www.w3.org/2000/svg">
    <path d="M17 9.05C17 4.505 13.523 0.8 9.25 0.8C4.977 0.8 1.5 4.505 1.5 9.05C1.5 13.202 4.436 16.645 8.225 17.2V11.426H6.204V9.05H8.225V7.235C8.225 5.168 9.354 4.048 11.103 4.048C11.94 4.048 12.82 4.202 12.82 4.202V6.3H11.848C10.893 6.3 10.575 6.938 10.575 7.593V9.05H12.727L12.359 11.426H10.575V17.2C14.364 16.645 17 13.202 17 9.05Z" fill="#1877F2"/>
    <path d="M12.359 11.426L12.727 9.05H10.575V7.593C10.575 6.938 10.893 6.3 11.848 6.3H12.82V4.202C12.82 4.202 11.94 4.048 11.103 4.048C9.354 4.048 8.225 5.168 8.225 7.235V9.05H6.204V11.426H8.225V17.2C8.734 17.267 9.253 17.267 9.762 17.2V11.426H12.359Z" fill="white"/>
</svg>
