<?xml version="1.0" standalone="no"?>
<!DOCTYPE svg PUBLIC "-//W3C//DTD SVG 20010904//EN"
 "http://www.w3.org/TR/2001/REC-SVG-20010904/DTD/svg10.dtd">
<svg version="1.0" xmlns="http://www.w3.org/2000/svg"
 width="640.000000pt" height="357.000000pt" viewBox="0 0 640.000000 357.000000"
 preserveAspectRatio="xMidYMid meet">

<g transform="translate(0.000000,357.000000) scale(0.100000,-0.100000)"
fill="#000000" stroke="none">
<path d="M0 2915 c0 -648 0 -655 20 -657 11 -1 32 -2 48 -3 15 -1 63 -5 108
-9 74 -6 182 7 244 31 8 3 42 8 75 10 32 2 62 8 65 13 3 5 39 18 80 29 112 28
188 79 323 215 117 118 169 183 182 228 4 12 17 41 30 63 44 77 73 389 45 480
-5 17 -11 51 -14 76 -3 26 -10 57 -15 70 -5 13 -14 43 -20 67 l-12 42 -579 0
-580 0 0 -655z m30 615 c0 -5 -4 -10 -10 -10 -5 0 -10 5 -10 10 0 6 5 10 10
10 6 0 10 -4 10 -10z"/>
<path d="M5155 3523 c28 -26 117 -110 200 -188 82 -77 183 -172 225 -211 41
-38 118 -110 170 -159 92 -86 132 -124 305 -285 44 -41 118 -111 165 -156 47
-44 106 -100 133 -124 l47 -43 0 444 0 444 -152 150 c-84 83 -163 156 -175
163 -17 9 -138 12 -495 12 l-473 0 50 -47z"/>
<path d="M2835 2900 c-158 -59 -421 -156 -493 -181 l-83 -30 -30 25 c-53 45
-132 45 -195 2 -17 -11 -146 -113 -287 -226 -220 -176 -279 -230 -251 -230 3
0 126 97 272 216 147 119 286 226 308 237 48 23 98 18 136 -12 l23 -19 -68
-32 c-152 -73 -161 -125 -62 -375 35 -90 71 -189 80 -219 17 -59 82 -225 95
-241 4 -5 37 -86 73 -180 36 -93 104 -266 151 -384 l85 -214 -81 -94 c-66 -77
-78 -96 -68 -108 18 -21 32 -18 25 5 -5 16 -2 20 14 20 12 0 26 9 33 19 9 15
16 17 30 10 16 -8 17 -7 9 14 -10 26 2 47 26 47 7 0 13 9 13 19 0 24 28 34 75
25 41 -7 43 0 14 50 -16 28 -18 39 -9 55 14 26 14 26 45 -6 24 -27 25 -27 25
-6 0 12 -4 25 -10 28 -20 12 -11 71 15 95 23 21 29 23 55 13 17 -6 28 -7 24
-2 -11 18 13 8 33 -14 33 -36 45 -66 45 -116 -1 -54 -35 -154 -63 -182 -11
-11 -19 -23 -19 -28 0 -5 -5 -11 -11 -13 -5 -2 -11 -10 -13 -18 -3 -24 -27
-62 -57 -95 -16 -16 -29 -33 -29 -37 0 -5 -9 -8 -21 -8 -15 0 -19 -5 -14 -19
4 -15 -10 -33 -61 -78 -64 -56 -100 -104 -87 -116 6 -7 -73 -117 -85 -117 -4
0 -23 -14 -42 -30 -19 -16 -39 -30 -44 -30 -5 0 -7 -3 -4 -6 7 -6 65 21 88 42
8 7 37 34 64 60 49 46 50 46 59 23 12 -32 2 -270 -12 -297 -6 -12 -10 -34 -9
-49 1 -15 -4 -38 -10 -50 -18 -32 -15 -43 13 -43 33 0 46 29 54 119 l7 76 17
-35 17 -35 -6 57 c-6 61 1 102 17 93 14 -9 11 1 -11 47 -21 44 -27 103 -10
113 6 3 10 14 10 24 0 30 39 55 124 79 134 38 185 46 213 33 13 -6 29 -9 34
-6 5 3 6 -1 3 -9 -3 -9 -1 -16 6 -16 6 0 9 -4 5 -9 -6 -11 15 -61 26 -61 8 0
19 -42 24 -93 3 -35 2 -37 -17 -31 -18 5 -20 4 -12 -12 21 -44 2 -210 -32
-277 -21 -42 -18 -59 8 -55 16 2 27 15 37 43 8 22 21 44 28 48 7 4 13 14 13
21 0 8 7 19 16 27 8 7 33 44 55 83 21 39 43 77 48 84 6 10 28 -1 93 -49 47
-34 110 -76 140 -93 63 -36 198 -127 221 -150 9 -9 28 -16 44 -16 l28 1 -35
29 c-19 16 -55 47 -80 69 -25 22 -62 55 -82 72 -21 17 -35 35 -32 40 3 5 -3 6
-12 2 -15 -6 -16 -1 -10 38 6 40 6 42 -7 24 -13 -16 -17 -17 -31 -6 -9 7 -24
10 -33 7 -10 -4 -14 -4 -11 0 4 3 -7 18 -24 32 -28 24 -30 29 -26 84 3 46 2
55 -6 40 -15 -25 -53 -72 -59 -72 -3 0 -15 20 -27 45 -19 40 -50 62 -50 36 0
-5 -9 -13 -20 -16 -23 -7 -76 42 -86 79 -3 12 -18 29 -34 38 -16 9 -39 32 -50
50 -35 55 -26 88 114 418 13 30 53 127 89 215 143 350 399 973 421 1025 13 30
59 142 102 249 97 239 122 271 205 271 47 0 114 -24 488 -175 239 -96 445
-185 458 -197 35 -33 49 -89 34 -138 -6 -22 -62 -154 -122 -292 -61 -139 -184
-422 -274 -628 -90 -206 -218 -499 -284 -650 -67 -151 -120 -278 -118 -283 3
-10 126 74 158 109 18 19 29 46 34 79 4 28 13 76 22 108 17 69 12 101 -7 40
-7 -24 -16 -43 -20 -43 -13 0 17 134 43 190 14 30 41 89 59 130 19 41 47 107
63 147 26 68 40 82 57 58 14 -19 55 -170 73 -267 10 -60 21 -97 28 -95 7 1 11
-8 9 -22 -2 -14 0 -21 7 -17 6 4 14 -10 20 -31 21 -81 42 -169 43 -180 1 -7 5
-13 10 -13 10 0 1 -117 -12 -167 -4 -18 -6 -57 -3 -87 3 -32 0 -69 -8 -93 -8
-21 -14 -85 -14 -145 l-1 -108 49 0 48 0 -5 58 c-15 153 -25 379 -23 487 l2
121 -39 84 c-21 47 -47 103 -57 125 -10 22 -26 76 -34 120 -9 44 -34 130 -56
192 l-41 111 47 109 c26 59 69 154 96 210 27 55 49 105 49 111 0 5 18 45 40
90 22 44 40 87 40 96 0 9 15 48 34 88 59 124 108 250 113 289 7 51 -12 103
-51 137 -51 45 -885 375 -945 375 -25 0 -231 -3 -457 -7 l-410 -7 -31 49 c-50
81 -132 102 -238 62z m184 -75 c19 -18 21 -25 10 -28 -155 -47 -178 -88 -180
-317 0 -74 -3 -128 -7 -120 -4 9 -11 -4 -18 -35 -7 -27 -13 -39 -13 -26 -1 22
-3 23 -48 16 -44 -6 -85 -25 -55 -25 7 0 12 -7 12 -16 0 -11 -5 -14 -17 -9
-10 3 -31 9 -47 12 -26 5 -28 4 -22 -13 4 -10 4 -15 0 -12 -10 11 -36 -20 -28
-33 4 -7 3 -9 -4 -5 -6 3 -36 -7 -66 -24 -31 -16 -56 -28 -56 -26 0 2 -29 -7
-65 -20 -81 -29 -139 -31 -182 -4 -18 11 -33 15 -33 10 0 -6 5 -10 11 -10 6 0
8 -9 4 -21 -5 -14 -4 -19 4 -15 7 5 9 1 5 -9 -8 -21 -9 -20 -37 55 -14 36 -43
112 -66 170 -53 136 -52 203 3 249 23 19 20 5 -3 -18 -11 -11 -23 -36 -27 -56
-6 -35 2 -61 82 -262 14 -37 94 -93 131 -93 23 0 195 62 266 96 25 12 40 28
48 51 12 38 8 55 -53 208 -48 119 -88 165 -143 165 -19 0 -35 3 -35 8 0 4 55
27 123 51 67 24 167 62 222 84 177 71 232 75 284 22z m781 -101 c0 -2 -55
-123 -88 -194 -14 -30 -25 -58 -24 -62 1 -4 -10 -3 -25 3 -35 13 -183 19 -183
8 0 -5 5 -9 10 -9 6 0 10 -4 10 -10 0 -18 -57 -11 -65 8 -7 16 -8 15 -15 -3
l-9 -20 -2 20 c-1 11 -5 -14 -9 -55 -5 -62 -7 -49 -8 75 -2 130 -5 154 -22
183 -11 18 -27 35 -35 38 -44 17 7 22 225 20 132 0 240 -2 240 -2z m-780 -38
c0 -2 -7 -7 -16 -10 -8 -3 -12 -2 -9 4 6 10 25 14 25 6z m272 -22 c15 -32 0
-59 -32 -59 -13 0 -28 8 -33 17 -15 23 6 68 33 68 12 0 25 -10 32 -26z m-871
-44 c6 0 9 -17 7 -37 -3 -35 -6 -38 -33 -38 -23 0 -31 5 -33 22 -5 31 16 66
35 59 8 -3 19 -6 24 -6z m1249 -185 c-7 -9 -15 -13 -17 -11 -7 7 7 26 19 26 6
0 6 -6 -2 -15z m-400 -105 c0 -5 -4 -10 -10 -10 -5 0 -10 5 -10 10 0 6 5 10
10 10 6 0 10 -4 10 -10z m110 -29 c-5 -11 -15 -23 -20 -26 -6 -4 -7 -11 -4
-17 4 -7 2 -8 -4 -4 -7 4 -12 3 -12 -2 0 -16 -106 -33 -201 -31 -97 1 -160 19
-188 52 -18 22 -9 21 39 -3 33 -17 59 -20 159 -20 128 0 157 6 203 45 36 30
42 31 28 6z m-828 -1353 c-7 -7 -12 -8 -12 -2 0 14 12 26 19 19 2 -3 -1 -11
-7 -17z m211 -313 c22 -19 47 -35 54 -35 23 0 14 -19 -17 -35 -16 -8 -45 -15
-65 -15 -38 0 -95 27 -95 44 0 9 69 75 78 76 2 0 22 -16 45 -35z m125 -8 c25
1 40 -2 37 -7 -7 -11 -84 -13 -109 -4 -25 10 -19 26 7 17 12 -4 41 -7 65 -6z
m379 -290 c13 -11 21 -22 19 -25 -7 -6 -96 60 -96 71 0 11 44 -15 77 -46z"/>
<path d="M3440 2480 c0 -5 5 -10 10 -10 6 0 10 5 10 10 0 6 -4 10 -10 10 -5 0
-10 -4 -10 -10z"/>
<path d="M3944 2691 c-34 -15 -64 -60 -64 -98 0 -50 45 -93 97 -93 69 0 112
55 99 125 -10 53 -80 88 -132 66z"/>
<path d="M4095 2500 c-71 -29 -88 -108 -36 -161 38 -38 87 -39 130 -3 61 51
47 143 -27 163 -43 12 -41 12 -67 1z"/>
<path d="M3821 2444 c-26 -21 -31 -33 -31 -68 0 -51 20 -81 64 -96 101 -33
181 105 99 170 -37 29 -94 26 -132 -6z"/>
<path d="M1450 2248 c-45 -37 -60 -69 -58 -128 0 -30 3 -41 5 -25 7 60 14 76
49 115 40 44 43 70 4 38z"/>
<path d="M4050 2260 c0 -5 7 -10 15 -10 8 0 15 5 15 10 0 6 -7 10 -15 10 -8 0
-15 -4 -15 -10z"/>
<path d="M1725 2195 c-28 -27 -34 -88 -12 -116 52 -68 167 -37 167 46 0 47 -8
64 -41 80 -43 23 -86 19 -114 -10z"/>
<path d="M1500 2162 c-38 -39 -40 -79 -4 -121 20 -25 34 -31 64 -31 53 0 68 8
86 42 30 57 -7 120 -78 133 -33 6 -41 3 -68 -23z"/>
<path d="M1418 2025 c6 -11 23 -31 39 -45 l28 -25 -30 35 c-47 55 -48 56 -37
35z"/>
<path d="M1664 1998 c-25 -12 -44 -48 -44 -84 0 -41 51 -84 97 -84 53 0 83 31
83 87 0 70 -72 112 -136 81z"/>
<path d="M1508 1913 c17 -21 47 -56 67 -78 20 -22 9 -5 -26 38 -34 42 -64 77
-66 77 -3 0 9 -17 25 -37z"/>
<path d="M1632 1760 c12 -16 24 -30 27 -30 4 0 12 -12 19 -27 6 -16 37 -55 67
-88 30 -33 55 -63 55 -67 0 -4 14 -17 31 -29 20 -14 -15 35 -87 124 -65 80
-123 146 -127 146 -4 1 2 -12 15 -29z"/>
<path d="M1898 1443 l40 -48 5 -150 c6 -181 -23 -476 -58 -585 -24 -77 -35
-196 -37 -433 l-3 -227 41 0 c33 0 45 5 58 25 9 14 14 25 11 25 -2 0 4 15 14
33 10 18 26 58 34 88 9 31 26 66 37 78 11 13 17 28 14 32 -3 5 0 9 5 9 6 0 11
11 11 25 0 14 4 25 9 25 8 0 15 26 28 115 3 22 11 43 17 47 7 5 6 8 -5 8 -8 0
-20 -5 -27 -12 -9 -9 -12 -9 -12 1 0 8 22 35 48 60 153 146 228 211 244 211
10 0 18 5 18 12 0 6 3 8 7 5 10 -11 35 32 27 46 -9 14 -265 318 -305 361 -15
16 -76 89 -135 162 -60 73 -113 133 -117 133 -5 1 10 -20 31 -46z m117 -150
c17 -21 44 -56 60 -79 17 -23 72 -86 123 -141 101 -109 182 -211 182 -230 0
-7 8 -14 18 -14 14 -1 14 -2 -2 -6 -11 -3 -26 -12 -34 -20 -18 -17 -55 -10
-90 18 -31 24 -46 25 -30 0 6 -10 26 -24 45 -32 18 -7 33 -15 33 -19 0 -8
-132 -140 -141 -140 -3 0 -33 -26 -65 -57 -33 -32 -71 -68 -84 -79 -14 -12
-33 -32 -42 -44 -9 -13 -21 -19 -28 -15 -9 6 -9 10 1 17 10 7 5 8 -15 3 -19
-4 -32 -2 -37 7 -14 21 -10 80 6 111 14 27 18 66 30 292 3 55 11 143 19 195 9
59 11 99 5 105 -12 12 -12 62 0 69 5 4 5 18 -2 35 -10 28 -5 61 10 61 4 0 22
-17 38 -37z"/>
</g>
</svg>
